<svg preserveAspectRatio="none" width="100%" height="100%" overflow="visible" style="display: block;" viewBox="16.364 16.364 167.273 167.273" fill="none" xmlns="http://www.w3.org/2000/svg">
<g id="haru-hero">
<path id="Vector_2" d="M100 178.182C143.179 178.182 178.182 143.179 178.182 100C178.182 56.8214 143.179 21.8182 100 21.8182C56.8214 21.8182 21.8182 56.8214 21.8182 100C21.8182 143.179 56.8214 178.182 100 178.182Z" fill="var(--fill-0, #A8D8EA)" fill-opacity="0.22"/>
<path id="Vector_3" d="M100 23.6364C138.182 23.6364 172.727 50.9091 176.364 92.7273C180 134.545 152.727 167.273 110.909 174.545C70.9091 181.818 34.5455 158.182 25.4545 118.182C16.3636 80 38.1818 40 74.5455 27.2727C83.6364 23.6364 92.7273 23.6364 100 23.6364Z" fill="var(--fill-0, #F5F6F8)"/>
<path id="Vector_4" d="M69.0909 98.1818C75.7576 106.667 82.4242 106.667 89.0909 98.1818" stroke="var(--stroke-0, #1E2235)" stroke-width="6" stroke-linecap="round"/>
<path id="Vector_5" d="M110.909 98.1818C117.576 106.667 124.242 106.667 130.909 98.1818" stroke="var(--stroke-0, #1E2235)" stroke-width="6" stroke-linecap="round"/>
</g>
</svg>
