<svg preserveAspectRatio="none" width="100%" height="100%" overflow="visible" style="display: block;" viewBox="0 0 120 120" fill="none" xmlns="http://www.w3.org/2000/svg">
<g id="haru-serious">
<path id="Vector" d="M60 6.85714C87.4286 6.85714 111.429 25.7143 114.857 54.8571C118.286 85.7143 97.7143 109.714 68.5714 113.143C39.4286 118.286 12 101.143 6.85714 72C1.71429 44.5714 18.8571 17.1429 44.5714 10.2857C49.7143 6.85714 54.8571 6.85714 60 6.85714Z" fill="var(--fill-0, #1E2235)"/>
<path id="Vector_2" d="M46.2857 63.4286C48.1793 63.4286 49.7143 61.8935 49.7143 60C49.7143 58.1065 48.1793 56.5714 46.2857 56.5714C44.3922 56.5714 42.8571 58.1065 42.8571 60C42.8571 61.8935 44.3922 63.4286 46.2857 63.4286Z" fill="var(--fill-0, #E8EAED)"/>
<path id="Vector_3" d="M77.1429 63.4286C79.0364 63.4286 80.5714 61.8935 80.5714 60C80.5714 58.1065 79.0364 56.5714 77.1429 56.5714C75.2493 56.5714 73.7143 58.1065 73.7143 60C73.7143 61.8935 75.2493 63.4286 77.1429 63.4286Z" fill="var(--fill-0, #E8EAED)"/>
</g>
</svg>
