<svg preserveAspectRatio="none" width="100%" height="100%" overflow="visible" style="display: block;" viewBox="0 0 140 140" fill="none" xmlns="http://www.w3.org/2000/svg">
<g id="haru-wink">
<path id="Vector" d="M70 136C106.451 136 136 106.451 136 70C136 33.5492 106.451 4 70 4C33.5492 4 4 33.5492 4 70C4 106.451 33.5492 136 70 136Z" fill="var(--fill-0, #6BB8D4)" fill-opacity="0.18"/>
<path id="Vector_2" d="M70 10C100 10 128 32 132 62C136 98 112 124 80 130C48 136 18 116 12 84C6 52 26 20 56 12C62 10 68 10 70 10Z" fill="var(--fill-0, #F5F6F8)"/>
<path id="Vector_3" d="M48 72C53.3333 78.6667 58.6667 78.6667 64 72" stroke="var(--stroke-0, #1E2235)" stroke-width="5" stroke-linecap="round"/>
<path id="Vector_4" d="M88 79.5C89.933 79.5 91.5 77.933 91.5 76C91.5 74.067 89.933 72.5 88 72.5C86.067 72.5 84.5 74.067 84.5 76C84.5 77.933 86.067 79.5 88 79.5Z" fill="var(--fill-0, #1E2235)"/>
</g>
</svg>
